<?xml version="1.0" encoding="UTF-8"?>
<svg id="Camada_1" data-name="Camada 1" xmlns="http://www.w3.org/2000/svg" xmlns:xlink="http://www.w3.org/1999/xlink" viewBox="0 0 1080 1080">
  <defs>
    <style>
      .cls-1 {
        fill: none;
        stroke: #000;
        stroke-miterlimit: 10;
        stroke-width: .25px;
      }

      .cls-1, .cls-2 {
        font-family: PaintBrushScript-Regular, 'Paint Brush Script';
        font-size: 299.95px;
        letter-spacing: .13em;
      }

      .cls-3 {
        fill: url(#Gradiente_sem_nome_122);
        stroke-width: 0px;
      }

      .cls-4 {
        opacity: .22;
      }
    </style>
    <linearGradient id="Gradiente_sem_nome_122" data-name="Gradiente sem nome 122" x1="622" y1="437.77" x2="483.8" y2="357.98" gradientUnits="userSpaceOnUse">
      <stop offset="0" stop-color="#e2572a" stop-opacity=".88"/>
      <stop offset=".06" stop-color="#e25a27" stop-opacity=".88"/>
      <stop offset=".11" stop-color="#e56420" stop-opacity=".89"/>
      <stop offset=".15" stop-color="#ea7614" stop-opacity=".89"/>
      <stop offset=".18" stop-color="#ef8808" stop-opacity=".9"/>
      <stop offset=".22" stop-color="#da8617" stop-opacity=".91"/>
      <stop offset=".29" stop-color="#a4843e" stop-opacity=".93"/>
      <stop offset=".38" stop-color="#4d807d" stop-opacity=".97"/>
      <stop offset=".45" stop-color="#107daa" stop-opacity="1"/>
      <stop offset=".48" stop-color="#3b6299" stop-opacity="1"/>
      <stop offset=".52" stop-color="#694687" stop-opacity="1"/>
      <stop offset=".56" stop-color="#8e2f78" stop-opacity="1"/>
      <stop offset=".6" stop-color="#a91f6e" stop-opacity="1"/>
      <stop offset=".64" stop-color="#b91568" stop-opacity="1"/>
      <stop offset=".66" stop-color="#bf1266" stop-opacity="1"/>
      <stop offset=".71" stop-color="#a63283" stop-opacity="1"/>
      <stop offset=".87" stop-color="#569de7"/>
      <stop offset=".89" stop-color="#6aa8e9" stop-opacity=".94"/>
      <stop offset="1" stop-color="#fff" stop-opacity=".5"/>
    </linearGradient>
  </defs>
  <g id="Logo">
    <g>
      <text class="cls-2" transform="translate(424.69 524.62)"><tspan x="0" y="0">M</tspan></text>
      <path class="cls-3" d="M591.46,525.82c-3.2.4-4.6.4-4.2,0,.2-.2-.5-.5-2.1-.9s-3-.6-4.2-.6c-1,0-2.6-.65-4.8-1.95-2.2-1.3-3.9-2.65-5.1-4.05-2.2-2.6-3.75-6-4.65-10.2-.9-4.2-1.35-10-1.35-17.4,0-2.6.3-7.9.9-15.9l1.5-12,.6-4.2.9-4.8.6-3.9c0-.8.2-1.6.6-2.4.2-.2.35-.45.45-.75.1-.3.05-.55-.15-.75,0-.4.1-.6.3-.6s.35-.05.45-.15c.1-.1.05-.25-.15-.45,0-.8.15-2.25.45-4.35s.55-3.25.75-3.45c.2-.2.5-1.1.9-2.7.4-2.4,1.9-8.25,4.5-17.55,2.6-9.3,4.5-15.35,5.7-18.15l1.5-4.5c.2-1.4.8-3,1.8-4.8.6-2.4.9-3.5.9-3.3l1.5-3.3,1.2-2.7c0-.8.3-1.6.9-2.4l4.2-9.6.3-1.5c0-.4.2-.6.6-.6s.4-.2,0-.6l.6-1.2c.4-.4.6-.9.6-1.5v-.9c.4,0,.6-.3.6-.9s.2-1.1.6-1.5l.6-1.5c.4-1.4,1-3.25,1.8-5.55.8-2.3,1.6-4.35,2.4-6.15.8-.8,1.5-2.2,2.1-4.2l2.7-5.7,1.5-2.7.3-.3c-.2,0,0-.5.6-1.5.6-1,1-1.5,1.2-1.5s.3.2.3.6-.3.8-.9,1.2l-.6,1.5c0,.6-.3,1.1-.9,1.5-.4.4-.5.8-.3,1.2,0,.6-.1.9-.3.9s-.3.2-.3.6c.4.6.3.8-.3.6-.2-.2-.3-.1-.3.3,0,.6-.1,1-.3,1.2-.4.2-.6.7-.6,1.5.2.2.25.35.15.45-.1.1-.25.15-.45.15l-.3.6c0,.2-.3.6-.9,1.2-.6.4-.6.5,0,.3.6-.2.8-.1.6.3-.4.4-.5.8-.3,1.2.6,0,1-.4,1.2-1.2.4-.6.6-1.1.6-1.5-.2,0,0-.3.6-.9.4-.4.5-.9.3-1.5,0-.2.1-.3.3-.3.2.2.35.25.45.15s.15-.25.15-.45c0-.8,1.5-4,4.5-9.6l4.5-9.6-2.1,2.4c-1.4,1.8-2.1,2.9-2.1,3.3s-.3.8-.9,1.2l-.9,1.8c0,1-.3,1.2-.9.6-.4-.4-2.7,2.1-6.9,7.5-5.2,6.8-8,10.4-8.4,10.8-2.8,3-6.7,8.3-11.7,15.9l-4.8,6.9-15.9,24.6-3.3,5.7c-1.4,1.6-2.5,3.3-3.3,5.1l-3.3,6-7.5,13.8-1.5,3.3-.9,1.8-2.7,6-3.3,6.9c-.2.6-.55,1.3-1.05,2.1-.5.8-.85,1.6-1.05,2.4-3.4,8.2-5.9,14.4-7.5,18.6-1.8,4.8-3.15,8.2-4.05,10.2s-1.65,3.2-2.25,3.6c-.8.2-1.65.15-2.55-.15s-1.35-.65-1.35-1.05c0-.2-.2-.3-.6-.3-.6.2-.9.1-.9-.3,0-.2-.2-.3-.6-.3h-.6c.2-.2.1-.5-.3-.9-.6,0-.9-1.4-.9-4.2,0-2.2.1-4.85.3-7.95.2-3.1.4-5.45.6-7.05v-1.8c0-.2.3-.3.9-.3.6.2.6.1,0-.3-.4-.2-.6-1.3-.6-3.3l1.2-15c0-3.8.2-5.7.6-5.7l.15-.75c.1-.5.05-1.15-.15-1.95,0-1.8.1-2.5.3-2.1.2.4.35.35.45-.15s.15-1.35.15-2.55c.4-10.2.8-16.3,1.2-18.3.2-1,.3-3.4.3-7.2,0-3,.2-4.5.6-4.5l.3-.9.6-3.6c0-.6.05-1.45.15-2.55s.05-1.95-.15-2.55c0-1.8.2-3.1.6-3.9.4-1.6.6-2.6.6-3v-1.2c-.2-1.2-.1-2.2.3-3,.4-.4.6-1.4.6-3,0-3.2.5-4.8,1.5-4.8.6,0,.6-.2,0-.6-.4-.2-.65-.7-.75-1.5-.1-.8.05-1.3.45-1.5.4,0,.6-.8.6-2.4s.2-2.4.6-2.4l.3-2.1c0-1.6.2-2.4.6-2.4.2,0,.4.2.6.6,0,.6.1.6.3,0,0-.6-.2-1.1-.6-1.5-.2-.6-.2-1.1,0-1.5.2-.6.35-1.15.45-1.65.1-.5-.05-.55-.45-.15-.4.2-.4.1,0-.3.4-.8.6-1.5.6-2.1.2-.2.3-.5.3-.9s.1-.7.3-.9c.4-.8.6-1.8.6-3l-.3-1.2c-.4,0-.6.3-.6.9s-.2,1.1-.6,1.5c-.6.6-1.4,2.7-2.4,6.3-1,3.6-1.7,6.6-2.1,9l-.3,3-1.2,6.6c-.4,1.8-.6,3.5-.6,5.1,0,.6.1,1,.3,1.2.6.4.8,1.2.6,2.4l-.6,3.6c0,.8-.2,1.8-.6,3l-.3,2.7c0,.2-.3,2.1-.9,5.7l-.6,7.2c0,2.4-.1,3.6-.3,3.6s-.3.2-.3.6c0,.2.1.3.3.3.4-.4.6-.4.6,0s-.2.6-.6.6l-.3,2.7c0,2.8-.5,9-1.5,18.6-.8,11.6-1.2,19.1-1.2,22.5-.4,7-.8,11.6-1.2,13.8l-.6,5.7c-.4,3-.7,5.15-.9,6.45-.2,1.3-.6,1.95-1.2,1.95s-.9-1.5-.9-4.5c0-2.8.2-5.4.6-7.8l.6-5.4c.4-2,.6-6,.6-12,0-4.8.6-14.4,1.8-28.79,1.4-19.4,2.4-30.79,3-34.19.6-3.6.9-5.6.9-6,.2-.6.35-1.45.45-2.55.1-1.1.35-2.35.75-3.75.2-1.8.5-3.8.9-6,.4-2.2.7-4.4.9-6.6l.3-2.4-.9,1.5-1.2,1.8c0,.4-2.1,5.5-6.3,15.3l-1.2,3.3c-.4,1.2-1.15,3.05-2.25,5.55-1.1,2.5-2.05,4.45-2.85,5.85,0,.6-.2,1.25-.6,1.95-.4.7-.7,1.45-.9,2.25l-1.8,3.6-1.5,3.9-1.5,3.9-1.5,3.3-3,7.5-8.4,21.9-1.8,5.1-.6,1.5-.6,1.2c-1.4,4.4-2.5,7.2-3.3,8.4-2,3.8-3.3,6.9-3.9,9.3,0,.4-.8,2.1-2.4,5.1-1,2-1.5,3.4-1.5,4.2,0,.4-.1.6-.3.6s-.65.75-1.35,2.25c-.7,1.5-.95,2.45-.75,2.85l-.6.3c-.2,0-.3.2-.3.6,0,.6-.4,1.5-1.2,2.7-1,1.4-1.5,2.4-1.5,3l-.6,1.5c-.4,0-.8.4-1.2,1.2,0,.2-.15.5-.45.9s-.25.7.15.9c.4.2-.5,2.2-2.7,6-2.2,3.8-4.3,6.9-6.3,9.3-2,2.6-2.8,4.1-2.4,4.5.2.2.1.3-.3.3-.2-.2-.5-.1-.9.3s-.5.6-.3.6c.4,0,1.25-.45,2.55-1.35,1.3-.9,1.95-1.55,1.95-1.95,0-.2.4-.7,1.2-1.5.8-.6,1.2-1.2,1.2-1.8-.2-.2-.1-.5.3-.9,0-.2.05-.25.15-.15.1.1.05.25-.15.45-.2.4-.1.5.3.3.2,0,.3-.3.3-.9,0-.2.6-.9,1.8-2.1,1.4-1.4,2.2-2.5,2.4-3.3.4-.8.7-1.2.9-1.2.4,0,1.3-1.3,2.7-3.9,1.4-2.6,2.2-3.9,2.4-3.9.4,0-.85,2.45-3.75,7.35-2.9,4.9-5.25,8.45-7.05,10.65-1.2,1.4-2.6,2.85-4.2,4.35-1.6,1.5-2.6,2.25-3,2.25-2,.4-3.5.8-4.5,1.2-.8.6-1.6.9-2.4.9-.6,0-1.7-.6-3.3-1.8l-4.8-3.3c-1.8-1.2-2.9-2.1-3.3-2.7-.4-.8-.6-1.9-.6-3.3,0-.8.1-1.2.3-1.2.8-.4,1.7-.6,2.7-.6.8,0,1.4.1,1.8.3,1,.6,1.8.9,2.4.9,1.2,0,2.2-.6,3-1.8,5.6-5.8,10.7-13.4,15.3-22.8,2.2-4,3.3-5.8,3.3-5.4l-.3.9c0,.8.1,1.2.3,1.2s.3-.2.3-.6c.2-.6.5-1.4.9-2.4.4-1,.8-1.7,1.2-2.1.4,0,.7-.6.9-1.8.2-.8.5-1.4.9-1.8.2,0,.35-.1.45-.3.1-.2.05-.4-.15-.6-.2-.4-.1-.6.3-.6.2.2.3.1.3-.3-.4-.6-.3-.8.3-.6.2.2.3.2.3,0-.2-.2-.1-.7.3-1.5l1.2-3.3c.4-1.2.9-2,1.5-2.4.6-.2,1.6-1.65,3-4.35,1.4-2.7,2.7-5.75,3.9-9.15l1.2-3.3c.2-.2.4-.55.6-1.05.2-.5.4-.95.6-1.35.4-1.8.9-3.1,1.5-3.9.8-1,1-1.7.6-2.1,0-.4.2-.7.6-.9.4-.6.5-1,.3-1.2,0-.4.1-.6.3-.6.8-.6,1.2-1.4,1.2-2.4,0-.2-.1-.3-.3-.3s-.3-.1-.3-.3.1-.4.3-.6c0-.4.3-.6.9-.6.2,0,.5-.4.9-1.2l2.1-5.4c1.2-2.4,1.8-4,1.8-4.8v-.6c.2.2.6-.35,1.2-1.65.6-1.3,1.1-2.55,1.5-3.75l1.5-3,2.1-5.1,1.8-4.8,1.8-3.9,1.2-2.7c0-.4.1-.6.3-.6v-.9l.3-.6.3-.6,1.5-3,.9-2.4c-.2,0-.25-.1-.15-.3.1-.2.25-.4.45-.6,1-1,4.8-9.1,11.4-24.29l2.4-6,1.2-3c1.2-2.6,3.05-7.05,5.55-13.35,2.5-6.3,4.95-12.75,7.35-19.35l5.1-13.2c1.2-2.2,1.8-3.1,1.8-2.7l-.3.9c0,.6.1.8.3.6.2-.4.5-.6.9-.6,0,.6-.1,1-.3,1.2-.4.4-.5.8-.3,1.2.4,0,.7-.2.9-.6v1.2c0,.2.1.2.3,0,0-.2.1-.4.3-.6.2-.2.3-.6.3-1.2.2-.8.2-1.1,0-.9l-.45.45c-.1.1-.15.05-.15-.15,0-1,.6-1.6,1.8-1.8l.9-.3-.9-.6c-.2,0-.35-.05-.45-.15-.1-.1-.05-.15.15-.15.6,0,1-.3,1.2-.9.8-.6,1.8-.75,3-.45,1.2.3,2.3.95,3.3,1.95.4.4.65.8.75,1.2.1.4.05,1-.15,1.8-.6,1-.7,1.7-.3,2.1.4,0,.4.4,0,1.2,0,.6.1.9.3.9.4,0,.6-.2.6-.6.2-.4.55-.85,1.05-1.35.5-.5.95-.85,1.35-1.05.2,0,.5.45.9,1.35.4.9.6,1.75.6,2.55,0,2.2-2.1,9.4-6.3,21.6-2.8,8.6-5.5,18.9-8.1,30.89-1.2,6.2-3.3,18.5-6.3,36.89l-2.1,21c-.4,4.6-.8,6.9-1.2,6.9-.2,0-.3-.4-.3-1.2v-1.5c.2-1,.2-1.9,0-2.7-.2,0-.5,1.2-.9,3.6l-1.5,8.7c-.6,2.6-.9,4.5-.9,5.7.2.2.25.5.15.9s-.15.7-.15.9l-.9,4.8-.3,4.5c-.2,1,0,.9.6-.3.8-1.4.9-2.2.3-2.4-.2-.2-.1-.3.3-.3.8,0,1-.2.6-.6,0-.2.1-.3.3-.3s.35-.15.45-.45c.1-.3.05-.55-.15-.75,0-.4.1-.6.3-.6.4.4.6-.3.6-2.1,0-.4.1-.5.3-.3.4-.2.7-.6.9-1.2.6-.6.95-1.1,1.05-1.5s-.05-.5-.45-.3c-.2.2-.3.1-.3-.3,0-.2.1-.35.3-.45l.3-.15c.2.2.4.15.6-.15.2-.3.4-.65.6-1.05.6-1,.9-1.4.9-1.2-.2.6-.55,1.5-1.05,2.7-.5,1.2-1.05,2.4-1.65,3.6,0,.2-.05.4-.15.6-.1.2-.05.4.15.6l2.1-3.6c3.8-8.4,8.2-17.1,13.2-26.1,4.6-7.8,7.1-11.7,7.5-11.7.2.2.35.2.45,0,.1-.2.05-.4-.15-.6,0-.4.1-.7.3-.9.4-.2.5-.1.3.3v.6l7.8-11.7c3.6-5.4,8.9-13,15.9-22.8l14.7-20.4c.8-1.4,2.6-3.8,5.4-7.2l4.5-5.7,6.6-8.1c6.6-8.2,10.6-13.3,12-15.3l.9-1.2c.2,0,.35-.05.45-.15.1-.1.15-.25.15-.45s.6-.9,1.8-2.1l2.7-3.3,2.4-3c.4-.4,1.2-1.4,2.4-3,.8-1.2,1.4-1.8,1.8-1.8.6-.2,1.1-.55,1.5-1.05.4-.5.6-.95.6-1.35s.2-.6.6-.6l2.1-1.8c1.6-1.6,2.5-2.6,2.7-3,.4-.2.75-.55,1.05-1.05s.55-.85.75-1.05c.6-1.2,1.4-2.3,2.4-3.3,1-1,1.7-1.5,2.1-1.5.2,0,.3.1.3.3l-.3.6c-.4.4-.4.6,0,.6.2,0,.3.2.3.6,0,.6-.4.9-1.2.9-.6,0-.9.2-.9.6,0,.6-.2,1.1-.6,1.5-.4.4-.5.4-.3,0,.2-.4.05-.35-.45.15s-.95,1.05-1.35,1.65c-.2.6-.1.9.3.9s.9-.3,1.5-.9l.6-.3c0,.2.1.25.3.15.2-.1.4-.25.6-.45.8-.8,1.6-1.3,2.4-1.5,1-.6,1.6-1,1.8-1.2.8-.8,1.7-1.2,2.7-1.2s1.6.3,1.8.9l.6.9.6,1.5c.2.8.2,1.5,0,2.1-.6.6-.9,1.3-.9,2.1v1.5l1.8-1.5c1.4-1.2,2-1.4,1.8-.6s-.1,1.1.3.9c.6-.4.6.1,0,1.5-.6,1.4-1.4,2.8-2.4,4.2l-2.1,3.3c0,.4-.8,1.6-2.4,3.6-2.4,3.8-5.45,8.7-9.15,14.7-3.7,6-5.55,9.2-5.55,9.6l-1.2,2.1c-.2.4-.75,1.35-1.65,2.85-.9,1.5-1.95,3.55-3.15,6.15l-3.9,7.5c-.6.6-1,1.4-1.2,2.4l-3.9,8.4-3.6,7.8c0,.6-.6,2.1-1.8,4.5l-1.2,3.3-.9,2.1-1.5,3.9-1.8,4.2c-1.6,4-2.6,6.4-3,7.2-.8,2.4-1.45,4.25-1.95,5.55s-1.05,2.65-1.65,4.05c-1,2-1.5,3.3-1.5,3.9,0,.8-.1,1.3-.3,1.5-.4.4-.8,1.3-1.2,2.7-1.2,3.2-2.1,5.4-2.7,6.6l-.6,1.8c0,.8-.3,1.7-.9,2.7-1.4,4.2-2.1,6.4-2.1,6.6l-1.2,3.9c-1.8,6.4-3.1,11.7-3.9,15.9l-.9,3.6-.9,9.6c0,3.6-.5,8.1-1.5,13.5-1,5.6-1.5,9.7-1.5,12.3,0,2.2-.2,3.3-.6,3.3-.4.2-.4.3,0,.3.6,0,.7,1.1.3,3.3v3.3l-.3-2.7-.3-3-.3,3.9c0,1.8.1,3.9.3,6.3.2,2.4.3,5.8.3,10.2,0,.8-.1,1.2-.3,1.2l-.3-.6c0-.4-.05-.85-.15-1.35-.1-.5-.05-.95.15-1.35,0-.6-.1-1-.3-1.2l-.3-2.7-.6-9.3-.3-6.3-.3,2.4c-.2,1.4-.3,3.2-.3,5.4.2.8.3,1.9.3,3.3s.1,2.8.3,4.2c0,6.2.9,12,2.7,17.4.6,2.8,0,2.3-1.8-1.5-1-2-1.5-2.8-1.5-2.4v.9c.4,1.6.9,3.35,1.5,5.25.6,1.9,1,2.75,1.2,2.55.2-.2.5-.1.9.3,0,.2.4.3,1.2.3.4,0,.75.2,1.05.6.3.4.25.7-.15.9-.6.2-.75.4-.45.6s.75.4,1.35.6c.6,0,1.05.1,1.35.3.3.2.45.6.45,1.2,0,.8-.2,1.2-.6,1.2ZM460.08,479.03c-.4.4-.6.7-.6.9s.05.3.15.3.25-.2.45-.6c.4-.4.4-.6,0-.6ZM463.98,470.33c0,.4-.3.9-.9,1.5-.4.6-.4.5,0-.3.4-1,.7-1.5.9-1.5v.3ZM469.08,474.23l-.3,1.5,1.8-3.6v-.9l-.6.6-.9,2.4ZM472.98,464.33l-2.4,6c0,.4.25.3.75-.3.5-.6.95-1.5,1.35-2.7,1-2.2,1.7-3.7,2.1-4.5l1.8-3.9c.4-1.6,1.3-3.9,2.7-6.9l1.8-4.8.6-1.8.6-1.8c0-.4.2-.95.6-1.65.4-.7.7-1.15.9-1.35.2,0,.3-.2.3-.6-.2,0-.1-.5.3-1.5l.6-1.8c.4-2,.8-3.2,1.2-3.6s.5-.6.3-.6c-.4,0-.4-.2,0-.6.8-1.6,1.4-3,1.8-4.2l1.8-4.2,1.5-3.9c.6-2.2,1.2-3.3,1.8-3.3.4,0,.5-.1.3-.3-.2-.4-.05-1.45.45-3.15s.95-2.75,1.35-3.15c.6-.6,1.2-2,1.8-4.2,3-7.8,4.8-12,5.4-12.6l1.5-3.6c.8-2.2,1.3-3.4,1.5-3.6.4,0,.6-.2.6-.6,0-.8.6-2.6,1.8-5.4l3-6.9c.6-2.2,1.2-3.6,1.8-4.2l1.5-3.3c.4-1.8,1-3.3,1.8-4.5l1.8-4.5,1.8-3.6,1.2-3.3c.8-2.2,1.5-3.4,2.1-3.6.6-.6,1-1.9,1.2-3.9,0-1.8.2-2.9.6-3.3s.6-.9.6-1.5c0-.4-.1-.6-.3-.6,0,.2-.05.35-.15.45l-.45.45-3,8.1-3,7.2c-.2.2-1.2,2.7-3,7.5l-4.2,9.9-1.5,3.3c-.4,1.2-1.15,3.1-2.25,5.7-1.1,2.6-2.05,4.8-2.85,6.6-2.6,6.2-4.2,10.1-4.8,11.7l-1.5,3.6c-1,2.2-2.6,6-4.8,11.4l-4.5,11.1c-.2.2-.7,1.5-1.5,3.9l-1.8,3.9-1.5,3.6c-.2,1.4-.6,2.4-1.2,3-.2.6-.5,1.45-.9,2.55s-.9,2.35-1.5,3.75c-.6,2-1.1,3.5-1.5,4.5-.4,1-.6,1.6-.6,1.8-.4.4-1,1.9-1.8,4.5-.4.8-.9,2-1.5,3.6-.6,1.6-1.4,3.5-2.4,5.7ZM470.88,487.58c-.2.1-.3-.05-.3-.45s.2-.6.6-.6c0-.2.1-.3.3-.3v.6c-.2.4-.4.65-.6.75ZM472.08,455.03c-.2,0-.3-.1-.3-.3l.6-.6c.2,0,.3.2.3.6,0,.2-.2.3-.6.3ZM485.73,422.49l-.15-.15c0-.4.2-.6.6-.6.2,0,.3.2.3.6l-.6.3-.15-.15ZM516.77,460.73c-.4.4-.6.7-.6.9h.6c.2,0,.3-.05.3-.15v-.45c0-.2-.1-.3-.3-.3ZM517.37,452.63c-.4.4-.6.8-.6,1.2l.3.6c.4-.4.6-.7.6-.9l-.3-.9ZM517.07,451.14c-.4,0-.4.2,0,.6l.3.6c.2,0,.3-.2.3-.6s-.2-.6-.6-.6ZM517.97,441.54c0,1,.1,1.5.3,1.5s.3-.7.3-2.1c0-1.6-.1-2.3-.3-2.1-.2.2-.3,1.1-.3,2.7ZM519.77,459.53v3.3c.4-.4.6-1.3.6-2.7l.3-7.2c.2-3.6.6-7.3,1.2-11.1l.3-5.4c0-.6-.1-1-.3-1.2-.6,0-1.1,3.1-1.5,9.3,0,1.6-.2,2.4-.6,2.4-.2,0-.1.2.3.6l.45.45c.1.1.05.15-.15.15-.4.4-.6,4.2-.6,11.4ZM520.37,353.05c-.4.8-.6,1.4-.6,1.8.2-.2.4-.45.6-.75.2-.3.4-.65.6-1.05.6-1.2.9-2.1.9-2.7v-.3l-.3.6-1.2,2.4ZM520.37,424.44c-.4,3.6-.6,6.8-.6,9.6,0,1.4.05,1.55.15.45.1-1.1.25-2.65.45-4.65.4-5.2.7-8.1.9-8.7.4-2.2.7-4.6.9-7.2.2-2.6.3-4.5.3-5.7-.4,0-.6,1.1-.6,3.3l-.6,4.5c-.2,2-.5,4.8-.9,8.4ZM522.77,404.64c-.2,0-.3.1-.3.3s.05.4.15.6c.1.2.15.2.15,0,.2,0,.3-.1.3-.3s-.1-.4-.3-.6ZM522.77,402.24v.6c.4.8.6,1,.6.6,0-.6-.1-1-.3-1.2h-.3ZM522.77,420.54c0,.4.1.5.3.3s.3-.9.3-2.1c0-.8-.1-1.2-.3-1.2v1.8c-.2.4-.3.8-.3,1.2ZM524.27,409.44c-.2,0-.3.1-.3.3s.2.3.6.3h.3l-.3-.6h-.3ZM524.27,446.94c-.2,0-.3.6-.3,1.8l.3,1.5c.2,0,.3-.5.3-1.5l-.3-1.8ZM525.17,400.15l-.6,2.7c0,1.6.1,2.2.3,1.8.4-.8.6-1.8.6-3,0-1-.1-1.5-.3-1.5ZM525.17,382.15l-.3.9c0,.2.05.4.15.6.1.2.15.2.15,0,.4-.4.4-.8,0-1.2v-.3ZM526.67,448.74c-.6.6-.9,1-.9,1.2s.15.25.45.15.55-.35.75-.75l.3-.9-.6.3ZM527.27,446.94c-.2,0-.3.2-.3.6l.6.3.15-.15.15-.15c0-.4-.2-.6-.6-.6ZM527.87,335.66c0,1.2-.1,2.1-.3,2.7-.2,1.2-.1,1.5.3.9.4-.6.9-1.6,1.5-3,.4-1.8,1.2-3.7,2.4-5.7l1.5-3.9c0-.8.3-1.8.9-3,.6-1.2.9-2.3.9-3.3-.2-.8-.1-1.1.3-.9.4.4.6-.2.6-1.8,0-1.2-.1-1.7-.3-1.5l-.3.6c-2.8,6.4-4.3,10-4.5,10.8,0,1-.2,1.5-.6,1.5-.4.4-.6.9-.6,1.5,0,.8-.1,1.3-.3,1.5-.4,0-.6.5-.6,1.5,0,.8-.2,1.2-.6,1.2l-.3.9ZM528.17,444.84c0,.2-.2.5-.6.9,0,.4.1.6.3.6s.35-.05.45-.15c.1-.1.15-.25.15-.45.2-.4.3-.8.3-1.2s-.1-.5-.3-.3l-.3.6ZM529.07,339.86l-.9.3c0,.2.3.3.9.3.4,0,.6-.2.6-.6l-.15-.15-.15-.15-.15.15-.15.15ZM528.77,347.66c-.2.6-.2.8,0,.6.6-.6.7-1,.3-1.2l-.15.15c-.1.1-.15.25-.15.45ZM529.67,337.46c-.6,1-.6,1.5,0,1.5.4,0,.6-.4.6-1.2v-.6l-.6.3ZM529.67,344.06c-.2.2-.3.5-.3.9,0,.6.2.5.6-.3v-.6h-.3ZM529.67,441.54c-.2,0-.3.2-.3.6,0,.2.1.3.3.3.4,0,.6-.1.6-.3,0-.4-.2-.6-.6-.6ZM530.27,440.04c-.4.8-.4,1.2,0,1.2l.6-.9c.4-.6.4-.9,0-.9,0-.4-.2-.2-.6.6ZM535.37,428.49c-.2.5-.4.85-.6,1.05l.3-1.5c.4-1,.7-1.4.9-1.2-.2.6-.4,1.15-.6,1.65ZM535.67,311.06l-.6.9c-.4.8-.3.9.3.3.4-.4.6-.8.6-1.2h-.3ZM546.16,419.64c-.4,0-.4.2,0,.6.2.8.4.9.6.3.2-.2.25-.4.15-.6-.1-.2-.25-.3-.45-.3h-.3ZM549.76,413.94c-.6.2-.9.6-.9,1.2,0,.4.15.55.45.45s.55-.45.75-1.05l.3-.9-.6.3ZM551.26,410.64c-.4,0-.6.4-.6,1.2,0,.6.05.9.15.9s.35-.3.75-.9c.2-.8.1-1.2-.3-1.2ZM552.16,408.54c-1,1-1,1.5,0,1.5.2,0,.2-.1,0-.3,0-.4.1-.6.3-.6.4,0,.6-.3.6-.9,0-.4-.1-.6-.3-.6l-.6.9ZM553.51,405.84c-.3.8-.35,1.3-.15,1.5.2.4,1-.7,2.4-3.3l2.1-3.3c.4-.6.4-.9,0-.9h-.3c-.2,0-.45.2-.75.6s-.35.8-.15,1.2c.2,0,.1.2-.3.6-.2,0-.6.5-1.2,1.5l-.6,1.2c-.4-.2-.75.1-1.05.9ZM558.46,398.35l-.6-.3.3.6c0,.8.2,1,.6.6l-.3-.9ZM559.66,396.55c-.4,0-.6.3-.6.9,0,.4.15.55.45.45.3-.1.55-.35.75-.75,0-.4-.2-.6-.6-.6ZM560.56,394.6c-.4.7-.4,1.05,0,1.05.4-.2.7-.5.9-.9.4-.8.5-1.2.3-1.2-.4,0-.8.35-1.2,1.05ZM562.06,391.75c-.2.2-.2.4,0,.6.2.6.4.8.6.6.2-.2.6-.8,1.2-1.8.8-1,1.2-1.8,1.2-2.4,0-.2-.1-.3-.3-.3s-.5.4-.9,1.2c0,.8-.4,1.4-1.2,1.8-.2,0-.4.1-.6.3ZM565.96,386.05c-.2.6-.2.9,0,.9s.6-.3,1.2-.9c.4-.4.4-.6,0-.6l-1.2.6ZM568.06,382.75c-.2,0-.3.4-.3,1.2.4.2.7.2.9,0,.2,0,.3-.1.3-.3s-.1-.4-.3-.6c0-.2-.2-.3-.6-.3ZM567.76,491.93c0,5.4.2,9.5.6,12.3,1,4.4,1.7,6.6,2.1,6.6v-.3l-.3-1.8-1.2-6.6-.3-11.1c0-8,.2-13.8.6-17.4v-3c-.4.4-.75,2.85-1.05,7.35-.3,4.5-.45,9.15-.45,13.95ZM568.81,380.95c-.1.2.05.4.45.6.4,0,.9-.3,1.5-.9.4-.6.4-.9,0-.9l-.15.15-.15.15c0,.4-.2.6-.6.6-.6,0-.95.1-1.05.3ZM569.56,464.93v1.5l.6-1.5c0-.8-.1-1.2-.3-1.2s-.3.4-.3,1.2ZM571.96,377.95c-1,.6-1.5,1-1.5,1.2h.6c.4,0,.8-.4,1.2-1.2l.6-.9-.9.9ZM573.46,463.43c-1.8,14.4-2.6,24.5-2.4,30.29,0,4.6.1,7.3.3,8.1.4,1.2.6,2.6.6,4.2.4,2,1,4.25,1.8,6.75s1.4,3.85,1.8,4.05c.2,0,.3.05.3.15s-.1.15-.3.15c-.4,0-.2.4.6,1.2s1.4,1.2,1.8,1.2.4-.4,0-1.2c-.6-.6-.9-1.2-.9-1.8-.2-.4-.5-1.35-.9-2.85-.4-1.5-.7-2.45-.9-2.85l-.3-1.5-.3-2.7c-1-4.6-1.5-11-1.5-19.2,0-3.8.2-7.3.6-10.5.2-1.2.3-2.6.3-4.2v-.6l.6-3c.2-.8.3-1.7.3-2.7v-.6c-.2-.6-.1-1.3.3-2.1.4-.8.8-1.1,1.2-.9.6,0,.9-.1.9-.3.2-.2.2-.35,0-.45s-.4-.05-.6.15c-.4,0-.6-.3-.6-.9l.6-3.9c.4-2.4.7-3.8.9-4.2l.6-3.6c0-1.8.1-2.7.3-2.7s.5-1,.9-3c0-1,.3-2.4.9-4.2.6-1.8,1.1-3.8,1.5-6,0-.2.3-1.2.9-3l1.2-4.8c.4-2.2.8-3.3,1.2-3.3l.3-1.2c0-.8.1-1.1.3-.9.2,0,.3-.4.3-1.2v-1.2c.4,0,.6-.5.6-1.5,0-1.2.3-1.9.9-2.1.4-.4.5-1,.3-1.8,0-.8.1-1.1.3-.9.2.2.35.15.45-.15s.05-.65-.15-1.05c-.4-.8-.3-1.4.3-1.8.4-.2.8-.95,1.2-2.25.4-1.3.6-2.45.6-3.45v-.9c-.2-.2-.1-.3.3-.3.4.2.6,0,.6-.6-.4-.6-.7-.8-.9-.6-.2,0-.1-.1.3-.3,1.2-1.2,2.1-3.2,2.7-6l1.2-2.7c.2-.2.45-.75.75-1.65s.45-1.75.45-2.55v-.3c-.2,0-.3-.05-.3-.15s.1-.15.3-.15.6-.7,1.2-2.1c.4-1.6.7-2.5.9-2.7l.3-.9c-.4-.4-.4-.6,0-.6.2,0,.5-.7.9-2.1l.3-1.5c-.4,0-.6-.1-.6-.3,0-.4.3-.6.9-.6.4-.4.6-.8.6-1.2.2-1.2.65-2.95,1.35-5.25.7-2.3,1.25-3.75,1.65-4.35,1-1.8,1.5-2.9,1.5-3.3,1-2.6,1.6-4,1.8-4.2,1-1.6,1.9-3.4,2.7-5.4.8-2,1-2.9.6-2.7-.4,0-.8.5-1.2,1.5-1.8,3.2-2.7,5.1-2.7,5.7l-.6,1.2c-.2.2-.35.45-.45.75-.1.3-.05.55.15.75,0,.4-.1.6-.3.6-.2-.2-.4-.15-.6.15s-.4.75-.6,1.35l-.9,2.1c-.4,0-.6.5-.6,1.5,0,.8-.2,1.2-.6,1.2-.2,0-.2.3,0,.9,0,.4-.1.5-.3.3-.2,0-.3.2-.3.6l-1.2,2.4-.6,2.4c.2.2,0,.3-.6.3v.9c0,.6-.1.8-.3.6v1.8c0,.4-.2.4-.6,0-.4,0-.5.3-.3.9.4.8.3,1-.3.6-.4-.4-.6-.3-.6.3.2.2.25.45.15.75-.1.3-.25.45-.45.45-.4.2-.5.7-.3,1.5.2.2.3.4.3.6s-.1.2-.3,0c-.2-.2-.3.1-.3.9.4.8.3,1-.3.6-.4-.2-.5.1-.3.9l.3,1.5c0,.2-.05.25-.15.15-.1-.1-.15-.25-.15-.45s-.2-.3-.6-.3l-.15.45c-.1.3-.05.55.15.75,0,.4-.1.5-.3.3-.4,0-.6.6-.6,1.8-.4,1.2-.7,1.8-.9,1.8s-.3.3-.3.9c.4.8.4,1.2,0,1.2-.2,0-.5.6-.9,1.8-.4,1.4-.7,2.2-.9,2.4-.4.4-.4.6,0,.6.2,0,.1.2-.3.6-.2.2-.3.6-.3,1.2.2.2.25.35.15.45-.1.1-.15.25-.15.45-.2,0-.5.7-.9,2.1-.4,1.2-.7,1.8-.9,1.8s-.3.4-.3,1.2c.2.2.3.4.3.6s-.1.3-.3.3c-.4,0-.6.5-.6,1.5s-.1,1.5-.3,1.5c-.8.6-.6-1,.6-4.8.8-2.8,1.2-4.3,1.2-4.5,0-.8-.75,1.2-2.25,6-1.5,4.8-2.65,9.1-3.45,12.9-.4,2.2-.7,3.7-.9,4.5-.2.8-.5,1.3-.9,1.5l-.3,1.2c0,.6-.1.9-.3.9-.6,0-.7.4-.3,1.2,0,.8-.1,1.2-.3,1.2s-.3.3-.3.9c0,.8-.1,1.3-.3,1.5l-.3,1.2c0,1-.2,1.5-.6,1.5l-.3,1.2-.6,3.6c-.6.8-1.2,3.4-1.8,7.8,0,1.2-.2,2-.6,2.4l-.3,1.5c0,.8-.1,1.2-.3,1.2-.4,0-.4.9,0,2.7.2,2,.1,2.8-.3,2.4-.2-.2-.35-.25-.45-.15-.1.1-.05.15.15.15l-.6,6.6ZM573.46,375.25c-.4.2-.7.5-.9.9.2.2.55.2,1.05,0,.5-.2.75-.5.75-.9l-.15-.15-.15-.15-.6.3ZM574.06,492.23c0,.8.1,1.2.3,1.2s.3-1.1.3-3.3v-2.4c-.2,0-.3.4-.3,1.2-.2.8-.3,1.9-.3,3.3ZM574.36,373.45v.9c.4,0,.7-.3.9-.9.4-.4.3-.6-.3-.6-.4,0-.6.2-.6.6ZM574.66,494.63c-.2-.2-.3.3-.3,1.5,0,1,.1,1.5.3,1.5s.3-.5.3-1.5l-.3-1.5ZM575.26,503.03c-.4,0-.6.3-.6.9,0,.4.2.6.6.6s.6-.2.6-.6c0-.6-.2-.9-.6-.9ZM575.26,505.72v.6c0,.8.1,1.2.3,1.2.6.6.7.2.3-1.2l-.6-.6ZM576.16,508.72c-.2,0-.3.1-.3.3,0,.4.1.65.3.75s.3-.05.3-.45-.1-.6-.3-.6ZM576.01,371.2c-.1.1.05.15.45.15.6,0,.9-.1.9-.3v-.3h-.6c-.4.2-.65.35-.75.45ZM576.31,511.12c.1.4.15.7.15.9l.6,1.2v-1.5l-.6-1.2c-.2,0-.25.2-.15.6ZM577.21,459.98c-.1.1-.15.25-.15.45-.2.4-.1.5.3.3l.3-.9h-.3l-.15.15ZM577.06,514.57c0,.3.1.55.3.75.4.8.6,1,.6.6.2,0,.1-.4-.3-1.2l-.15-.15-.15-.15c-.2-.2-.3-.15-.3.15ZM578.56,368.35c-1.2.4-1.3.6-.3.6l.6-.3v-.3h-.3ZM586.51,508.57c-.1-.1-.15-.35-.15-.75l.3-.6c.4.4.4.8,0,1.2,0,.2-.05.25-.15.15ZM599.7,363.4l-.15.15c0,.4.1.6.3.6.4,0,.6-.1.6-.3l-.6-.3v-.3l-.15.15ZM601.5,356.5c-.1.1-.05.25.15.45l.6.3c.4,0,.6-.1.6-.3,0-.4-.3-.6-.9-.6-.2,0-.35.05-.45.15ZM604.35,350.05c-.4,0-.6.2-.6.6,0,.2.2.3.6.3.2,0,.3-.1.3-.3,0-.4-.1-.6-.3-.6ZM605.55,351.25c-.2,0-.5.3-.9.9-.2.8-.1.9.3.3.6-.6.8-1,.6-1.2ZM608.25,344.96l-.3.9.9-.9c1-1.8,1.5-2.9,1.5-3.3l.9-2.7c-.2,0-1.2,2-3,6ZM610.8,347.51l-.15.15c0,.6.25.55.75-.15s.95-1.55,1.35-2.55c.2-.6.45-1.25.75-1.95.3-.7.65-1.35,1.05-1.95l.9-1.8c-.2-.2-.8.6-1.8,2.4-.8,2-1.4,3-1.8,3l-.3,1.5c0,.8-.2,1.2-.6,1.2l-.15.15ZM612.45,335.96l-.3,1.2c0,.2.1.2.3,0l.6-1.2v-.3l-.6.3ZM613.65,333.56l-.6,1.2c0,.4.2.4.6,0l.3-1.5-.15.15-.15.15ZM615.9,336.86c-.3.4-.45.9-.45,1.5l.3-.15c.2-.1.3-.25.3-.45l.9-1.2c0-.2-.1-.3-.3-.3s-.45.2-.75.6ZM617.25,334.46l-.3.6c0,1,.2.9.6-.3v-.3h-.3ZM626.85,316.61c-.2.3-.2.45,0,.45l1.2-1.8c.6-1.2.8-1.8.6-1.8l-1.2,1.8c-.2.6-.4,1.05-.6,1.35ZM629.25,298.17l-.6.9h.6c.4-.4.6-.7.6-.9h-.6ZM631.05,296.07c-.6.6-.7.9-.3.9.2,0,.5-.1.9-.3s.6-.5.6-.9c0-.2-.1-.3-.3-.3s-.5.2-.9.6ZM633.15,293.37c.2,0,.1.3-.3.9-.2.4-.25.6-.15.6s.35-.2.75-.6c.8-.6,1.65-1.5,2.55-2.7.9-1.2,1.35-2,1.35-2.4l-2.4,2.1-1.8,2.1Z"/>
      <g class="cls-4">
        <text class="cls-1" transform="translate(424.69 524.62)"><tspan x="0" y="0">M</tspan></text>
      </g>
    </g>
  </g>
</svg>